<svg xmlns="http://www.w3.org/2000/svg" viewBox="0 0 460.8 81.4" width="461" height="81" role="img" aria-labelledby="t" xmlns:c2pa="http://c2pa.org/manifest"><metadata><c2pa:manifest>AAAWgmp1bWIAAAAeanVtZGMycGEAEQAQgAAAqgA4m3EDYzJwYQAAABZcanVtYgAAAEdqdW1kYzJtYQARABCAAACqADibcQN1cm46YzJwYTo5MjViN2Y4ZS1hNzQwLTQ2ODgtODVmNy0zNDI5ZjFkNjQyMWQAAAADl2p1bWIAAAApanVtZGMyYXMAEQAQgAAAqgA4m3EDYzJwYS5hc3NlcnRpb25zAAAAALxqdW1iAAAARGp1bWRjYm9yABEAEIAAAKoAOJtxE2MycGEuaW5ncmVkaWVudC52MwAAAAAYYzJzaFnrbFpITzPj4VWCpluXOMEAAABwY2JvcqNpZGM6Zm9ybWF0bWltYWdlL3N2Zyt4bWxqaW5zdGFuY2VJRHgseG1wOmlpZDphMGRiMmZkNi04ZjkzLTRmZDEtOTZlOS0xZjBkYjZiMDZhMmZscmVsYXRpb25zaGlwaHBhcmVudE9mAAAB4mp1bWIAAABBanVtZGNib3IAEQAQgAAAqgA4m3ETYzJwYS5hY3Rpb25zLnYyAAAAABhjMnNo1OxGyRR9+Ltzvdby4lneWwAAAZljYm9yomdhY3Rpb25zgqJmYWN0aW9ua2MycGEub3BlbmVkanBhcmFtZXRlcnOha2luZ3JlZGllbnRzgaJjdXJseC1zZWxmI2p1bWJmPWMycGEuYXNzZXJ0aW9ucy9jMnBhLmluZ3JlZGllbnQudjNkaGFzaFggXUd5QFMZSAr8kwNVb3lWFCdd6ARoEahhl++PpWhK/rSkZmFjdGlvbngdY29tLmFudGhyb3BpYy5jbGF1ZGUucHJvdmlkZWRqcGFyYW1ldGVyc6F4H2NvbS5hbnRocm9waWMub3JpZ2luLWNvbmZpZGVuY2VndW5rbm93bmtkZXNjcmlwdGlvbnhmQ2xhdWRlIHByb3ZpZGVkIHRoaXMgZmlsZSBhdCB0aGUgcmVxdWVzdCBvZiBhIHVzZXIgYW5kIG1heSBoYXZlIGNyZWF0ZWQgb3IgbW9kaWZpZWQgdGhlIGZpbGUgY29udGVudHMubXNvZnR3YXJlQWdlbnShZG5hbWVmQ2xhdWRlcmFsbEFjdGlvbnNJbmNsdWRlZPUAAADIanVtYgAAAEBqdW1kY2JvcgARABCAAACqADibcRNjMnBhLmhhc2guZGF0YQAAAAAYYzJzaN0zXqzMk2PFkBs2JxQ4oekAAACAY2JvcqVjYWxnZnNoYTI1NmNwYWRNAAAAAAAAAAAAAAAAAGRoYXNoWCCFNokO1UsrrZlpK2p6ob5t1jSbbDZxTMhOt8Ka3kPLs2RuYW1lbmp1bWJmIG1hbmlmZXN0amV4Y2x1c2lvbnOBomVzdGFydBi3Zmxlbmd0aBkeBAAAAj5qdW1iAAAAJ2p1bWRjMmNsABEAEIAAAKoAOJtxA2MycGEuY2xhaW0udjIAAAACD2Nib3KlY2FsZ2ZzaGEyNTZpc2lnbmF0dXJleE1zZWxmI2p1bWJmPS9jMnBhL3VybjpjMnBhOjkyNWI3ZjhlLWE3NDAtNDY4OC04NWY3LTM0MjlmMWQ2NDIxZC9jMnBhLnNpZ25hdHVyZWppbnN0YW5jZUlEeCx4bXA6aWlkOmNjZTQ1ODUzLTMyYTAtNGI5YS1iMTM3LWMxMWJjMjhlZDMyNHJjcmVhdGVkX2Fzc2VydGlvbnODomN1cmx4LXNlbGYjanVtYmY9YzJwYS5hc3NlcnRpb25zL2MycGEuaW5ncmVkaWVudC52M2RoYXNoWCBdR3lAUxlICvyTA1VveVYUJ13oBGgRqGGX74+laEr+tKJjdXJseCpzZWxmI2p1bWJmPWMycGEuYXNzZXJ0aW9ucy9jMnBhLmFjdGlvbnMudjJkaGFzaFgg/5HO6uZ2plGzh08sCqcZYKkNI5uoTDPgl6t61+yhByWiY3VybHgpc2VsZiNqdW1iZj1jMnBhLmFzc2VydGlvbnMvYzJwYS5oYXNoLmRhdGFkaGFzaFggJrj+FWF2NLzyZh4NdL6z7LKAZmj12VLUuqIS7D41Nzt0Y2xhaW1fZ2VuZXJhdG9yX2luZm+jZG5hbWVvQW50aHJvcGljIEZpbGVzZ3ZlcnNpb25lMS4wLjBrc3BlY1ZlcnNpb25lMi40LjAAABA4anVtYgAAAChqdW1kYzJjcwARABCAAACqADibcQNjMnBhLnNpZ25hdHVyZQAAABAIY2JvctKEWQISogEmGCFZAgowggIGMIIBjaADAgECAhRA5aAK7sI50L64g/oGQgU9Z1UTADAKBggqhkjOPQQDAzBJMRcwFQYDVQQKEw5BbnRocm9waWMsIFBCQzEuMCwGA1UEAxMlQW50aHJvcGljIENvbnRlbnQgQ3JlZGVudGlhbHMgUm9vdCBDQTAeFw0yNjA4MDcxODQzNTZaFw0yODA4MDYxOTQzNTZaMEQxFzAVBgNVBAoTDkFudGhyb3BpYywgUEJDMSkwJwYDVQQDEyBBbnRocm9waWMgQ2xhdWRlIENvbnRlbnQgU2lnbmluZzBZMBMGByqGSM49AgEGCCqGSM49AwEHA0IABJh6CmvLUBgFFNU0vUKlOVtE6djd17L5SuwX0LemFisBM3dkd/3cyjxFA3Qo5S46fX0/ihY0VZ7mfb9KF703t5OjWDBWMA4GA1UdDwEB/wQEAwIHgDAVBgNVHSUEDjAMBgorBgEEAYPoXgIBMAwGA1UdEwEB/wQCMAAwHwYDVR0jBBgwFoAUzlHiBIFOZFsj+OPEz5o+nMHXXMIwCgYIKoZIzj0EAwMDZwAwZAIwMXMdFJ4BetLLVY7ORuE9noqbbAZOZn/aArXyTwFAZfKrPzxF2vPoJNf1+UCdg1XGAjBwX1zd9WGqYkqmL5SFqw1QySjr1zJfpJM9+1rdDwSPLMOPOjKuiXjoU/pUUeG9RwmhY3BhZFkNngAAAAAAAAAAAAAAAAAAAAAAAAAAAAAAAAAAAAAAAAAAAAAAAAAAAAAAAAAAAAAAAAAAAAAAAAAAAAAAAAAAAAAAAAAAAAAAAAAAAAAAAAAAAAAAAAAAAAAAAAAAAAAAAAAAAAAAAAAAAAAAAAAAAAAAAAAAAAAAAAAAAAAAAAAAAAAAAAAAAAAAAAAAAAAAAAAAAAAAAAAAAAAAAAAAAAAAAAAAAAAAAAAAAAAAAAAAAAAAAAAAAAAAAAAAAAAAAAAAAAAAAAAAAAAAAAAAAAAAAAAAAAAAAAAAAAAAAAAAAAAAAAAAAAAAAAAAAAAAAAAAAAAAAAAAAAAAAAAAAAAAAAAAAAAAAAAAAAAAAAAAAAAAAAAAAAAAAAAAAAAAAAAAAAAAAAAAAAAAAAAAAAAAAAAAAAAAAAAAAAAAAAAAAAAAAAAAAAAAAAAAAAAAAAAAAAAAAAAAAAAAAAAAAAAAAAAAAAAAAAAAAAAAAAAAAAAAAAAAAAAAAAAAAAAAAAAAAAAAAAAAAAAAAAAAAAAAAAAAAAAAAAAAAAAAAAAAAAAAAAAAAAAAAAAAAAAAAAAAAAAAAAAAAAAAAAAAAAAAAAAAAAAAAAAAAAAAAAAAAAAAAAAAAAAAAAAAAAAAAAAAAAAAAAAAAAAAAAAAAAAAAAAAAAAAAAAAAAAAAAAAAAAAAAAAAAAAAAAAAAAAAAAAAAAAAAAAAAAAAAAAAAAAAAAAAAAAAAAAAAAAAAAAAAAAAAAAAAAAAAAAAAAAAAAAAAAAAAAAAAAAAAAAAAAAAAAAAAAAAAAAAAAAAAAAAAAAAAAAAAAAAAAAAAAAAAAAAAAAAAAAAAAAAAAAAAAAAAAAAAAAAAAAAAAAAAAAAAAAAAAAAAAAAAAAAAAAAAAAAAAAAAAAAAAAAAAAAAAAAAAAAAAAAAAAAAAAAAAAAAAAAAAAAAAAAAAAAAAAAAAAAAAAAAAAAAAAAAAAAAAAAAAAAAAAAAAAAAAAAAAAAAAAAAAAAAAAAAAAAAAAAAAAAAAAAAAAAAAAAAAAAAAAAAAAAAAAAAAAAAAAAAAAAAAAAAAAAAAAAAAAAAAAAAAAAAAAAAAAAAAAAAAAAAAAAAAAAAAAAAAAAAAAAAAAAAAAAAAAAAAAAAAAAAAAAAAAAAAAAAAAAAAAAAAAAAAAAAAAAAAAAAAAAAAAAAAAAAAAAAAAAAAAAAAAAAAAAAAAAAAAAAAAAAAAAAAAAAAAAAAAAAAAAAAAAAAAAAAAAAAAAAAAAAAAAAAAAAAAAAAAAAAAAAAAAAAAAAAAAAAAAAAAAAAAAAAAAAAAAAAAAAAAAAAAAAAAAAAAAAAAAAAAAAAAAAAAAAAAAAAAAAAAAAAAAAAAAAAAAAAAAAAAAAAAAAAAAAAAAAAAAAAAAAAAAAAAAAAAAAAAAAAAAAAAAAAAAAAAAAAAAAAAAAAAAAAAAAAAAAAAAAAAAAAAAAAAAAAAAAAAAAAAAAAAAAAAAAAAAAAAAAAAAAAAAAAAAAAAAAAAAAAAAAAAAAAAAAAAAAAAAAAAAAAAAAAAAAAAAAAAAAAAAAAAAAAAAAAAAAAAAAAAAAAAAAAAAAAAAAAAAAAAAAAAAAAAAAAAAAAAAAAAAAAAAAAAAAAAAAAAAAAAAAAAAAAAAAAAAAAAAAAAAAAAAAAAAAAAAAAAAAAAAAAAAAAAAAAAAAAAAAAAAAAAAAAAAAAAAAAAAAAAAAAAAAAAAAAAAAAAAAAAAAAAAAAAAAAAAAAAAAAAAAAAAAAAAAAAAAAAAAAAAAAAAAAAAAAAAAAAAAAAAAAAAAAAAAAAAAAAAAAAAAAAAAAAAAAAAAAAAAAAAAAAAAAAAAAAAAAAAAAAAAAAAAAAAAAAAAAAAAAAAAAAAAAAAAAAAAAAAAAAAAAAAAAAAAAAAAAAAAAAAAAAAAAAAAAAAAAAAAAAAAAAAAAAAAAAAAAAAAAAAAAAAAAAAAAAAAAAAAAAAAAAAAAAAAAAAAAAAAAAAAAAAAAAAAAAAAAAAAAAAAAAAAAAAAAAAAAAAAAAAAAAAAAAAAAAAAAAAAAAAAAAAAAAAAAAAAAAAAAAAAAAAAAAAAAAAAAAAAAAAAAAAAAAAAAAAAAAAAAAAAAAAAAAAAAAAAAAAAAAAAAAAAAAAAAAAAAAAAAAAAAAAAAAAAAAAAAAAAAAAAAAAAAAAAAAAAAAAAAAAAAAAAAAAAAAAAAAAAAAAAAAAAAAAAAAAAAAAAAAAAAAAAAAAAAAAAAAAAAAAAAAAAAAAAAAAAAAAAAAAAAAAAAAAAAAAAAAAAAAAAAAAAAAAAAAAAAAAAAAAAAAAAAAAAAAAAAAAAAAAAAAAAAAAAAAAAAAAAAAAAAAAAAAAAAAAAAAAAAAAAAAAAAAAAAAAAAAAAAAAAAAAAAAAAAAAAAAAAAAAAAAAAAAAAAAAAAAAAAAAAAAAAAAAAAAAAAAAAAAAAAAAAAAAAAAAAAAAAAAAAAAAAAAAAAAAAAAAAAAAAAAAAAAAAAAAAAAAAAAAAAAAAAAAAAAAAAAAAAAAAAAAAAAAAAAAAAAAAAAAAAAAAAAAAAAAAAAAAAAAAAAAAAAAAAAAAAAAAAAAAAAAAAAAAAAAAAAAAAAAAAAAAAAAAAAAAAAAAAAAAAAAAAAAAAAAAAAAAAAAAAAAAAAAAAAAAAAAAAAAAAAAAAAAAAAAAAAAAAAAAAAAAAAAAAAAAAAAAAAAAAAAAAAAAAAAAAAAAAAAAAAAAAAAAAAAAAAAAAAAAAAAAAAAAAAAAAAAAAAAAAAAAAAAAAAAAAAAAAAAAAAAAAAAAAAAAAAAAAAAAAAAAAAAAAAAAAAAAAAAAAAAAAAAAAAAAAAAAAAAAAAAAAAAAAAAAAAAAAAAAAAAAAAAAAAAAAAAAAAAAAAAAAAAAAAAAAAAAAAAAAAAAAAAAAAAAAAAAAAAAAAAAAAAAAAAAAAAAAAAAAAAAAAAAAAAAAAAAAAAAAAAAAAAAAAAAAAAAAAAAAAAAAAAAAAAAAAAAAAAAAAAAAAAAAAAAAAAAAAAAAAAAAAAAAAAAAAAAAAAAAAAAAAAAAAAAAAAAAAAAAAAAAAAAAAAAAAAAAAAAAAAAAAAAAAAAAAAAAAAAAAAAAAAAAAAAAAAAAAAAAAAAAAAAAAAAAAAAAAAAAAAAAAAAAAAAAAAAAAAAAAAAAAAAAAAAAAAAAAAAAAAAAAAAAAAAAAAAAAAAAAAAAAAAAAAAAAAAAAAAAAAAAAAAAAAAAAAAAAAAAAAAAAAAAAAAAAAAAAAAAAAAAAAAAAAAAAAAAAAAAAAAAAAAAAAAAAAAAAAAAAAAAAAAAAAAAAAAAAAAAAAAAAAAAAAAAAAAAAAAAAAAAAAAAAAAAAAAAAAAAAAAAAAAAAAAAAAAAAAAAAAAAAAAAAAAAAAAAAAAAAAAAAAAAAAAAAAAAAAAAAAAAAAAAAAAAAAAAAAAAAAAAAAAAAAAAAAAAAAAAAAAAAAAAAAAAAAAAAAAAAAAAAAAAAAAAAAAAAAAAAAAAAAAAAAAAAAAAAAAAAAAAAAAAAAAAAAAAAAAAAAAAAAAAAAAAAAAAAAAAAAAAAAAAAAAAAAAAAAAAAAAAAAAAAAAAAAAAAAAAAAAAAAAAAAAAAAAAAAAAAAAAAAAAAAAAAAAAAAAAAAAAAAAAAAAAAAAAAAAAAAAAAAAAAAAAAAAAAAAAAAAAAAAAAAAAAAAAAAAAAAAAAAAAAAAAAAAAAAAAAAAAAAAAAAAAAAAAAAAAAAAAAAAAAAAAAAAAAAAAAAAAAAAAAAAAAAAAAAAAAAAAAAAAAAAAAAAAAAAAAAAAAAAAAAAAAAAAAAAAAAAAAAAAAAAAAAAAAAAAAAAAAAAAAAAAAAAAAAAAAAAAAAAAAAAAAAAAAAAAAAAAAAAAAAAAAAAAAAAAAAAAAAAAAAAAAAAAAAAAAAAAAAAAAAAAAAAAAAAAAAAAAAAAAAAAAAAAAAAAAAAAAAAAAAAAAAAAAAAAAAAAAAAAAAAAAAAAAAAAAAAAAAAAAAAAAAAAAAAAAAAAAAAAAAAAAAAAAAAAAAAAAAAAAAAAAAAAAAAAAAAAAAAAAAAAAAAAAAAAAAAAAAAAAAAAAAAAAAAAAAAAAAAAAAAAAAAAAAAAAAAAAAAAAAAAAAAAAAAAAAAAAAAAAAAAAAAAAAAAAAAAAAAAAAAAAAAAAAAAAAAAAAAAAAAAAAAAAAAAAAAAAAAAAAAAAAAAAAAAAAAAAAAAAAAAAAAAAAAAAAAAAAAAAAAAAAAAAAAAAAAAAAAAAAAAAAAAAAAAAAAAAAAAAAAAAAAAAAAAAAAAAAAAAAAAAAAAAAAAAAAAAAAAAAAAAAAAAAAAAAAAAAAAAAAAAAAAAAAAAAAAAAAAAAAAAAAAAAAAAAAAAAAAAAAAAAAAAAAAAAAAAAAAAAAAAAAAAAAAAAAAAAAAAAAAAAAAAAAAAAAAAAAAAAAAAAAAAAAAAAAAAAAAAAAAAAAAAAAAAAAAAAAAAAAAAAAAAAAAAAAAAAAAAAAAAAAAAAAAAAAAAAAAAAAAAAAAAAAAAAAAAAAAAAAAAAAAAAAAAAAAAAAAAAAAAAAAAAAAAAAAAAAAAAAAAAAAAAAAAAAAAAAAAAAAAAAAAAPZYQAKn5DP0AjFXWrl5MItFvslfwPYFtd8GF3TQbtmGebhKEAZODhBiAe4kCDLtFv0PAMxdxW4LywqDIRhGVoLZoQ0=</c2pa:manifest></metadata><title id="t">The Indie Labs</title><path fill="none" stroke="#8FA9B3" stroke-width="1.00" d="M0.06 69.42H51.76"/><path fill="none" stroke="#8FA9B3" stroke-width="1.00" d="M51.19 12.70A58.46 58.46 0 0 0 2.68 22.13"/><g fill="#1E2A30"><rect x="10.00" y="26.47" width="9.55" height="42.95"/><rect x="32.27" y="10.96" width="9.55" height="58.46"/></g><circle fill="#B8463B" cx="14.77" cy="15.37" r="5.37"/><path fill="#1E2A30" d="M89.70651834542412 69.42464500077297V35.42321482499172H76.64914285714286V29.10464500077297H109.50245340401787V35.42321482499172H96.44507791573662V69.42464500077297ZM134.0491804547991 69.42464500077297V54.85527634842922Q134.0491804547991 53.45056467850735 133.84616934640067 51.71454929764797Q133.64315823800223 49.97853391678859 132.9384773297991 48.366202007608905Q132.23379642159597 46.75387009842922 130.81978616768973 45.717876934366714Q129.4057759137835 44.68188377030422 126.98377762276786 44.68188377030422Q125.70507449776785 44.68188377030422 124.44739102608817 45.099563824015156Q123.18970755440849 45.517243877726095 122.17236966378348 46.532260113077655Q121.15503177315848 47.54727634842922 120.5366998639788 49.334619366007345Q119.91836795479911 51.12196238358547 119.91836795479911 53.88462107499172L115.91441238839286 52.16733103592922Q115.91441238839286 48.317298565226096 117.412417515346 45.17429771073391Q118.91042264229911 42.03129685624172 121.81775369698661 40.17863987381985Q124.7250847516741 38.32598289139797 128.99039529854912 38.32598289139797Q132.33636966378347 38.32598289139797 134.52269644601006 39.43663816483547Q136.70902322823662 40.54729343827297 137.99702835518974 42.29028062089016Q139.28503348214286 44.03326780350734 139.9010437360491 45.99559629471828Q140.51705398995534 47.95792478592922 140.6990625348772 49.710270366983906Q140.8810710797991 51.46261594803859 140.8810710797991 52.54065525467922V69.42464500077297ZM113.08647732979911 69.42464500077297V29.10464500077297H119.09705057198661V50.338040996866724H119.91836795479911V69.42464500077297ZM161.05977078683037 70.26464500077297Q156.472444859096 70.26464500077297 153.00512064034598 68.27431309159329Q149.537796421596 66.2839811824136 147.58946963936944 62.75831309159328Q145.64114285714288 59.23264500077297 145.64114285714288 54.631303692179216Q145.64114285714288 49.67530369217922 147.55213687569756 46.021305401163595Q149.46313089425226 42.36730711014797 152.8487904401507 40.355976055460474Q156.23444998604913 38.34464500077297 160.68644656808038 38.34464500077297Q165.3764380231585 38.34464500077297 168.66643289620538 40.53797263749172Q171.95642776925226 42.73130027421047 173.55942862374445 46.73529343827297Q175.16242947823662 50.73928660233547 174.76577249581476 56.18994871171047H168.06920779854912V53.72598972733547Q168.04120438058038 48.78861765702297 166.333175327846 46.515921367960466Q164.62514627511163 44.243225078897964 160.96643973214287 44.243225078897964Q156.82707620675225 44.243225078897964 154.8040531354632 46.80991624100734Q152.78103006417413 49.37660740311672 152.78103006417413 54.304645000772965Q152.78103006417413 58.90602390702297 154.8040531354632 61.42604954178859Q156.82707620675225 63.94607517655422 160.68644656808038 63.94607517655422Q163.17847732979914 63.94607517655422 164.97983572823662 62.83539255936672Q166.7811941266741 61.72470994217922 167.76121121651786 59.63401365311672L174.4344294782366 61.640658672647966Q172.703093296596 65.73798630936672 169.0700992780413 68.00131565506985Q165.43710525948663 70.26464500077297 161.05977078683037 70.26464500077297ZM150.6530574079241 56.18994871171047V51.08468259842922H171.46648416573663V56.18994871171047ZM191.11314285714283 69.42464500077297V29.10464500077297H197.85170242745534V69.42464500077297ZM226.33718045479912 69.42464500077297V54.85527634842922Q226.33718045479912 53.45056467850735 226.13416934640068 51.71454929764797Q225.93115823800224 49.97853391678859 225.2264773297991 48.366202007608905Q224.52179642159598 46.75387009842922 223.10778616768974 45.717876934366714Q221.6937759137835 44.68188377030422 219.27177762276787 44.68188377030422Q217.99307449776788 44.68188377030422 216.73539102608817 45.099563824015156Q215.47770755440848 45.517243877726095 214.46036966378347 46.532260113077655Q213.44303177315848 47.54727634842922 212.8246998639788 49.334619366007345Q212.2063679547991 51.12196238358547 212.2063679547991 53.88462107499172L208.20241238839287 52.16733103592922Q208.20241238839287 48.317298565226096 209.70041751534598 45.17429771073391Q211.1984226422991 42.03129685624172 214.1057536969866 40.17863987381985Q217.0130847516741 38.32598289139797 221.27839529854913 38.32598289139797Q224.62436966378348 38.32598289139797 226.81069644601007 39.43663816483547Q228.99702322823663 40.54729343827297 230.28502835518975 42.29028062089016Q231.57303348214288 44.03326780350734 232.18904373604911 45.99559629471828Q232.80505398995535 47.95792478592922 232.98706253487723 49.710270366983906Q233.16907107979912 51.46261594803859 233.16907107979912 52.54065525467922V69.42464500077297ZM205.3744773297991 69.42464500077297V39.18464500077297H211.38505057198662V48.56456638749172H212.2063679547991V69.42464500077297ZM251.26646023995536 70.26464500077297Q247.07579129464287 70.26464500077297 243.9747955671038 68.1623113826089Q240.87379983956473 66.05997776444484 239.1634713483538 62.44564414628078Q237.45314285714286 58.83131052811672 237.45314285714286 54.295310528116715Q237.45314285714286 49.70331394608547 239.18213687569755 46.10298032792141Q240.91113089425224 42.50264670975734 244.06812320382255 40.42364585526516Q247.22511551339286 38.34464500077297 251.5184431501116 38.34464500077297Q255.81644144112724 38.34464500077297 258.74944058663505 40.43764414628078Q261.6824397321429 42.53064329178859 263.18977249581474 46.14030967362453Q264.6971052594866 49.749976055460465 264.6971052594866 54.295310528116715Q264.6971052594866 58.82664329178859 263.1804397321429 62.44097690995265Q261.6637742047991 66.05531052811672 258.6771120954241 68.15997776444485Q255.69044998604912 70.26464500077297 251.26646023995536 70.26464500077297ZM252.29310184151785 64.22606834061672Q255.00912234933037 64.22606834061672 256.6798066755023 62.970721905069844Q258.35049100167413 61.71537546952297 259.11116849190853 59.47302134354641Q259.8718459821429 57.230667217569845 259.8718459821429 54.295310528116715Q259.8718459821429 51.350619366007344 259.1088348737444 49.11293247635891Q258.345823765346 46.87524558671047 256.7218049665179 45.62923362381984Q255.09778616768972 44.38322166092922 252.5264294782366 44.38322166092922Q249.80107449776784 44.38322166092922 248.04172635323658 45.71789915116359Q246.28237820870535 47.05257664139797 245.43770413643972 49.30192991288234Q244.59303006417412 51.55128318436672 244.59303006417412 54.295310528116715Q244.59303006417412 57.06733787186672 245.4237058454241 59.32135837967922Q246.2543816266741 61.575378887491716 247.95539786202568 62.900723614054215Q249.65641409737722 64.22606834061672 252.29310184151785 64.22606834061672ZM259.8718459821429 69.42464500077297V48.19124900467922H259.05052859933033V29.10464500077297H265.8357536969866V69.42464500077297ZM273.4051428571429 34.60193162186672V28.404662090616718H280.14370242745537V34.60193162186672ZM273.4051428571429 69.42464500077297V39.18464500077297H280.14370242745537V69.42464500077297ZM301.45177078683037 70.26464500077297Q296.864444859096 70.26464500077297 293.397120640346 68.27431309159329Q289.929796421596 66.2839811824136 287.98146963936944 62.75831309159328Q286.0331428571429 59.23264500077297 286.0331428571429 54.631303692179216Q286.0331428571429 49.67530369217922 287.94413687569755 46.021305401163595Q289.8551308942522 42.36730711014797 293.2407904401507 40.355976055460474Q296.6264499860491 38.34464500077297 301.0784465680804 38.34464500077297Q305.7684380231585 38.34464500077297 309.0584328962054 40.53797263749172Q312.3484277692522 42.73130027421047 313.9514286237444 46.73529343827297Q315.5544294782366 50.73928660233547 315.15777249581475 56.18994871171047H308.46120779854914V53.72598972733547Q308.4332043805804 48.78861765702297 306.725175327846 46.515921367960466Q305.0171462751116 44.243225078897964 301.35843973214287 44.243225078897964Q297.2190762067522 44.243225078897964 295.19605313546316 46.80991624100734Q293.1730300641741 49.37660740311672 293.1730300641741 54.304645000772965Q293.1730300641741 58.90602390702297 295.19605313546316 61.42604954178859Q297.2190762067522 63.94607517655422 301.0784465680804 63.94607517655422Q303.57047732979913 63.94607517655422 305.37183572823665 62.83539255936672Q307.1731941266741 61.72470994217922 308.1532112165179 59.63401365311672L314.8264294782366 61.640658672647966Q313.095093296596 65.73798630936672 309.4620992780413 68.00131565506985Q305.8291052594866 70.26464500077297 301.45177078683037 70.26464500077297ZM291.0450574079241 56.18994871171047V51.08468259842922H311.8584841657366V56.18994871171047ZM331.5051428571429 69.42464500077297V29.10464500077297H338.2437024274554V63.10607517655422H356.0517571149554V69.42464500077297ZM368.4464841657366 70.26464500077297Q365.1518118024553 70.26464500077297 362.886143711635 69.02097861893704Q360.6204756208147 67.7773122371011 359.46080923897875 65.70298032792141Q358.30114285714285 63.62864841874172 358.30114285714285 61.13665183671047Q358.30114285714285 58.94330711014797 359.03148672921316 57.20497349198391Q359.76183060128346 55.466639873819844 361.2761727643694 54.19031309159328Q362.7905149274553 52.91398630936672 365.17984256417407 52.09266209061672Q367.01852859933035 51.490663799601094 369.45687588936937 51.0263318904214Q371.89522317940845 50.56199998124172 374.76988187081474 50.1536697810464Q377.644540562221 49.745339580851095 380.79449441964283 49.27401365311672L378.36786648995536 50.62732761796047Q378.391202671596 47.49594016678859 376.9701864362444 46.00957920487453Q375.54917020089283 44.52321824296047 372.15179129464286 44.52321824296047Q370.11708133370536 44.52321824296047 368.21540469796315 45.48223618729641Q366.31372806222095 46.44125413163235 365.5530574079241 48.75128318436672L359.38381180245534 46.81931394608547Q360.5084756208147 42.99263816483547 363.6654747663225 40.66864158280422Q366.82247391183034 38.34464500077297 372.17046023995533 38.34464500077297Q376.2071308942522 38.34464500077297 379.26379129464283 39.655988018351096Q382.32045169503346 40.96733103592922 383.81843973214285 43.97266209061672Q384.6304294782366 45.55931736405422 384.7984294782366 47.22531565506985Q384.9664294782366 48.89131394608547 384.9664294782366 50.86996921952297V69.42464500077297H379.0491872907366V62.86326951249172L380.02919070870536 63.94591111405422Q377.9852112165178 67.20793674881985 375.2528570905413 68.73629087479641Q372.52050296456474 70.26464500077297 368.4464841657366 70.26464500077297ZM369.7811155133928 64.87938572342922Q372.07713943917406 64.87938572342922 373.6964944196428 64.06504356034328Q375.3158494001116 63.250701397257345 376.2865303083147 62.08634214432766Q377.2572112165178 60.92198289139797 377.58388016183034 59.86726609452297Q378.1112060895647 58.579259258585466 378.1928707624163 56.91558945878078Q378.27453543526786 55.25191965897609 378.27453543526786 54.21125925858547L380.34651492745536 54.83660056717922Q377.2758869977678 55.326592022257344 375.08954312569756 55.681255840616714Q372.90319925362724 56.03591965897609 371.344499546596 56.355587749796406Q369.78579983956473 56.67525584061672 368.5771052594866 57.076593731241715Q367.41510013253344 57.50592478592922 366.60075113351 58.058929058390156Q365.7864021344866 58.611933330851095 365.3523884626116 59.34461423905422Q364.9183747907366 60.077295147257345 364.9183747907366 61.05265525467922Q364.9183747907366 62.158663799601094 365.47137906319756 63.0243455622964Q366.02438333565846 63.89002732499172 367.1047323346819 64.38470652421047Q368.18508133370534 64.87938572342922 369.7811155133928 64.87938572342922ZM405.9197707868304 70.26464500077297Q401.49578104073663 70.26464500077297 398.5091189313616 68.15997776444485Q395.5224568219866 66.05531052811672 394.0057912946429 62.44097690995265Q392.48912576729913 58.82664329178859 392.48912576729913 54.295310528116715Q392.48912576729913 49.749976055460465 393.99645853097104 46.14030967362453Q395.5037912946429 42.53064329178859 398.43679044015073 40.43764414628078Q401.3697895856585 38.34464500077297 405.66778787667414 38.34464500077297Q409.9611155133929 38.34464500077297 413.1181078229632 40.42364585526516Q416.2751001325335 42.50264670975734 418.0040941510882 46.10298032792141Q419.7330881696429 49.70331394608547 419.7330881696429 54.295310528116715Q419.7330881696429 58.83131052811672 418.02275967843195 62.44564414628078Q416.312431187221 66.05997776444484 413.211435459682 68.1623113826089Q410.1104397321429 70.26464500077297 405.9197707868304 70.26464500077297ZM391.35047732979916 69.42464500077297V29.10464500077297H398.1357024274554V48.19124900467922H397.3143850446429V69.42464500077297ZM404.89312918526787 64.22606834061672Q407.5298169294085 64.22606834061672 409.2308331647601 62.900723614054215Q410.9318494001117 61.575378887491716 411.76252518136164 59.32135837967922Q412.59320096261166 57.06733787186672 412.59320096261166 54.295310528116715Q412.59320096261166 51.55128318436672 411.7461932721819 49.30192991288234Q410.89918558175225 47.05257664139797 409.14217105538506 45.71789915116359Q407.3851565290179 44.38322166092922 404.6598015485491 44.38322166092922Q402.088444859096 44.38322166092922 400.4644260602679 45.62923362381984Q398.8404072614398 46.87524558671047 398.0773961530414 49.11293247635891Q397.3143850446429 51.350619366007344 397.3143850446429 54.295310528116715Q397.3143850446429 57.230667217569845 398.07506253487725 59.47302134354641Q398.83574002511165 61.71537546952297 400.5064243512835 62.970721905069844Q402.1771086774554 64.22606834061672 404.89312918526787 64.22606834061672ZM436.0384602399554 70.25531052811672Q430.424472202846 70.25531052811672 426.9314747663226 67.73998630936671Q423.4384773297991 65.22466209061672 422.67314285714286 60.65134812577297L429.5610334821429 59.59669627030422Q430.0837058454241 61.83670994217922 431.9130625348772 63.120052959757345Q433.7424192243304 64.40339597733546 436.5144499860491 64.40339597733546Q438.9271582380022 64.40339597733546 440.26418472726004 63.44437632401515Q441.60121121651787 62.48535667069484 441.60121121651787 60.79132419999172Q441.60121121651787 59.76930881913235 441.1065388532366 59.1392985652261Q440.61186648995533 58.50928831131984 438.96452176339284 57.921281475382344Q437.31717703683034 57.333274639444845 433.9011599469866 56.42326951249172Q430.10248074776786 55.43393162186672 427.86014371163503 54.26959971268703Q425.6178066755022 53.105267803507346 424.64014029366626 51.50927293046047Q423.6624739118304 49.91327805741359 423.6624739118304 47.64061765702297Q423.6624739118304 44.81262791092922 425.1371394391741 42.71963389237453Q426.61180496651787 40.62663987381984 429.2834679303851 39.485642437296406Q431.95513089425225 38.34464500077297 435.5624568219866 38.34464500077297Q439.08111893136163 38.34464500077297 441.8134508405413 39.43897861893703Q444.54578274972096 40.53331223710109 446.23044827706474 42.5423113826089Q447.91511380440846 44.551310528116716 448.28377762276784 47.26730711014797L441.39588699776783 48.50862107499172Q441.14388016183034 46.58125754960109 439.6435174909319 45.458906841593276Q438.1431548200335 44.33655613358547 435.6744499860491 44.196559551554216Q433.2944158063616 44.0705612605386 431.8337263532366 44.919912823038594Q430.37303690011163 45.76926438553859 430.37303690011163 47.29529002030422Q430.37303690011163 48.186636455851094 430.9633756452288 48.80031309159328Q431.553714390346 49.41398972733547 433.3247203717913 50.020662090616725Q435.0957263532366 50.62733445389797 438.63306082589287 51.523334453897974Q442.2590830426897 52.46133958085109 444.41975882393973 53.64900596268703Q446.58043460518974 54.83667234452297 447.54410269601004 56.48633701737453Q448.50777078683035 58.136001690226095 448.50777078683035 60.48333445389797Q448.50777078683035 65.04265696366359 445.1944431501116 67.64898374589015Q441.88111551339284 70.25531052811672 436.0384602399554 70.25531052811672Z"/></svg>
